<svg xmlns="http://www.w3.org/2000/svg" width="1200" height="900" viewBox="0 0 1200 900" role="img" aria-label="کاور برند املاک · بازار املاک آنلاین">
  <defs>
    <linearGradient id="bg" x1="0" y1="0" x2="0" y2="1">
    <stop offset="0" stop-color="#112445"/>
    <stop offset="0.55" stop-color="#204887"/>
    <stop offset="1" stop-color="#2f68c5"/>
  </linearGradient>
    <radialGradient id="glow" cx="0.18" cy="0.12" r="0.9">
    <stop offset="0" stop-color="#6ca1f8" stop-opacity="0.85"/>
    <stop offset="0.5" stop-color="#4588f6" stop-opacity="0.35"/>
    <stop offset="1" stop-color="#2c62b9" stop-opacity="0"/>
  </radialGradient>
    
  <pattern id="grain" width="34" height="34" patternUnits="userSpaceOnUse">
    <circle cx="0" cy="0" r="1.1" fill="white" opacity="0.05"/>
  </pattern>
  </defs>
  <rect width="1200" height="900" fill="url(#bg)"/>
  <rect width="1200" height="900" fill="url(#glow)"/>
  <rect width="1200" height="900" fill="black" opacity="0.05"/>
  <rect width="1200" height="900" fill="url(#grain)"/>
  <rect x="28" y="28" width="1144" height="844" rx="20" fill="none" stroke="white" stroke-opacity="0.14" stroke-width="1.5"/>
  
    <g>
      <path d="M560 780 L560 300 M560 300 L560 210 Q560 180 590 180 L600 180 M600 180 L600 540 M600 540 L752 540 L752 330 L752 300 L840 300 L840 780" stroke="white" stroke-opacity="0.2" stroke-width="2" fill="none"/>
      <rect x="700" y="180" width="120" height="600" fill="none" stroke="white" stroke-opacity="0.95" stroke-width="3"/>
      <g fill="#76a8f9">
        <rect x="716" y="210" width="26" height="36" opacity="0.9"/>
        <rect x="758" y="210" width="26" height="36" opacity="0.7"/>
        <rect x="716" y="266" width="26" height="36" opacity="0.75"/>
        <rect x="758" y="266" width="26" height="36" opacity="0.9"/>
        <rect x="716" y="322" width="26" height="36" opacity="0.8"/>
        <rect x="758" y="322" width="26" height="36" opacity="0.65"/>
        <rect x="736" y="378" width="48" height="60" opacity="0.85"/>
      </g>
      <rect x="350" y="560" width="90" height="220" fill="none" stroke="white" stroke-opacity="0.5" stroke-width="2"/>
      <rect x="430" y="470" width="90" height="310" fill="none" stroke="white" stroke-opacity="0.7" stroke-width="2.5"/>
      <rect x="510" y="640" width="70" height="140" fill="none" stroke="white" stroke-opacity="0.4" stroke-width="2"/>
    </g>
  <g font-family="system-ui, Tahoma, sans-serif">
    <text x="60" y="120" font-size="22" letter-spacing="6" fill="white" fill-opacity="0.55">LABELHOOK</text>
    <text x="60" y="830" font-size="44" font-weight="700" fill="white">amlaker.com</text>
    <text x="60" y="874" font-size="24" fill="white" fill-opacity="0.75">املاک · بازار املاک آنلاین</text>
  </g>
</svg>